<?xml version="1.0" encoding="utf-8"?>
<!-- Generator: Adobe Illustrator 22.0.1, SVG Export Plug-In . SVG Version: 6.00 Build 0)  -->
<svg version="1.1" id="Layer_1" xmlns="http://www.w3.org/2000/svg" xmlns:xlink="http://www.w3.org/1999/xlink" x="0px" y="0px"
	 viewBox="0 0 100 78.8" style="enable-background:new 0 0 100 78.8;" xml:space="preserve">
<style type="text/css">
	.st0{fill:#005A34;}
</style>
<path class="st0" d="M73,44.4h12.2c0.7,0,1.2,0.6,1.2,1.3v0.5H87c0.1,0,0.2,0.1,0.2,0.3v9.9c0,0.1-0.1,0.3-0.2,0.3h-0.6v0.5
	c0,0.7-0.6,1.3-1.2,1.3H73v-11c3.1,0,5.8-0.1,7.5-0.2c3-0.1,4.1,0.2,4.5,2c0.4,1.7,0.5,3.8,0.5,4.8c0.1,1,0.3,0.3,0.3-0.8
	c0-1.1-0.2-3.9-0.3-5.1c-0.1-1.1-0.8-1.7-2.2-1.8c-0.7,0-5.2,0-10.3,0V44.4z M73,69.9v-1.6c4.6-4.4,6.1-8,6.4-8.8h1.1
	C78.6,63.8,75.9,67.2,73,69.9 M73,63.8c1.4-1.3,2.6-2.7,3.8-4.2h-0.9c-0.9,1.2-1.9,2.3-2.9,3.4V63.8z M73,40.1v-2.7
	c0.3-0.6,0.7-1,1.4-1c0.5,0,0.9,0.2,1.2,0.7c0.3,0.5,0.4,1.1,0.4,1.9c0,0.3-0.1,1.2-0.2,1.6h-1.1v-0.1c0.9-0.5,1.1-1.9,0.5-2.4
	c-0.8-0.7-1.4,0.5-1.8,1.2C73.3,39.6,73.2,39.9,73,40.1 M73,33.5v-1.2c0.1,0,0.2,0,0.4-0.1c1-0.3,1.1-1.1,0.7-2.1L73,30.3v-1.7
	c0.1,0,0.2-0.1,0.4-0.1c0.1,0,0.2-0.1,0.3-0.1c0.1,0,0.1-0.1,0.1-0.1l0-0.4l0.2-0.1l0.8,3c0.2,1,0.4,2-0.7,2.5
	C73.7,33.5,73.3,33.5,73,33.5 M73,17.7c5.8,5.8,9.3,13.8,9.3,22.6c0,1.1-0.1,2.2-0.2,3.3h1c0.1-1.3,0.2-2.6,0.2-3.9
	c0-9.4-4-18-10.4-24V17.7z M73,11.6c3.5,3.4,9.2,9.2,11.1,13.4c2.3,5,2,7.6,1.9,10.2c-0.1,2.6-0.3,8.4-0.3,8.4h0.5
	c0,0,0.2-2.5,0.2-4.9c0-2.5,0.7-3.2,0.2-7.2c-0.5-4-1.9-8.2-5-11.9c-2-2.4-5.6-6.4-8.6-9.5V11.6z M88.3,47.6c0.8,0,1.2,0.4,1.5,1.5
	c0.2,0.7,0.6,0.9,1.5,1c0.5,0,1.1,0.1,1.4-0.1c0.8-0.4,1.1-1.3,2.4-1.7c1.6-0.4,4.9,0.1,4.9,2.9c0,2.8-3.3,3.3-4.9,2.9
	c-1.3-0.4-1.6-1.3-2.4-1.7c-0.3-0.1-0.9-0.1-1.4-0.1c-0.9,0-1.3,0.2-1.5,1c-0.3,1.1-0.7,1.5-1.5,1.5V47.6z M71.5,44.4H73v2
	c-0.5,0-1,0-1.5,0V44.4z M73,58.5h-1.5v-11H73V58.5z M73,10.1v1.6c-0.6-0.6-1.1-1.1-1.5-1.5V8.5C72,9,72.5,9.5,73,10.1 M73,15.7v2
	c-0.5-0.5-1-0.9-1.5-1.4v-1.9C72,14.7,72.5,15.2,73,15.7 M73,28.6v1.7l-1.3,0.4c0.2,0.9,0.6,1.5,1.3,1.5v1.2
	c-0.5-0.1-0.8-0.5-1.1-1.1c-0.1,0.4-0.2,0.7-0.4,0.9v-4.3L73,28.6L73,28.6z M73,37.4v2.7c-0.4,0.6-0.8,1-1.5,1h0v-1.5
	c0.7-0.1,1-1.1,1.4-2C72.9,37.6,73,37.5,73,37.4 M73,62.9v0.9c-0.5,0.5-1,0.9-1.5,1.4v-0.8C72,63.9,72.5,63.4,73,62.9 M73,68.3v1.6
	c-0.5,0.5-1,0.9-1.5,1.4v-1.6C72,69.2,72.5,68.8,73,68.3 M71.5,25.9v-1.5l0.9,1.3l-0.1,0.1L72,25.7c-0.1,0-0.1,0-0.2,0
	C71.7,25.7,71.6,25.8,71.5,25.9L71.5,25.9z M65.5,44.4h6v2.1c-2,0-4.1,0-6,0.1V44.4z M71.5,58.5h-6V47.4c2.1,0.1,4.1,0.1,6,0.1V58.5
	z M71.5,8.5v1.7c-0.1-0.1-0.1-0.1-0.2-0.2c-2.5-2.4-3.1-3.6-5.8-4.4V4.7c1.4,0.4,2.6,0.9,3.3,1.4C69.4,6.6,70.4,7.5,71.5,8.5
	 M71.5,14.3v1.9c-1.8-1.6-3.9-3-6-4.1v-1.8C67.6,11.4,69.6,12.8,71.5,14.3 M71.5,24.4v1.5c-0.1,0.1-0.2,0.1-0.3,0.2l-2,1.3
	c-0.8,0.6-1.4,0.7-2,0.7c-0.6-0.1-1.2-0.5-1.7-1.1c0-0.1-0.1-0.2-0.1-0.2v-2.9c0.2-0.2,0.4-0.4,0.7-0.6l2.1-1.5
	c0.1-0.1,0.2-0.1,0.3-0.2c0.1-0.1,0.2-0.1,0.3-0.2c0,0,0.1-0.1,0-0.2v-0.3l0.2-0.1l1.3,1.8l-0.1,0.1l-0.3-0.2c0,0-0.1,0-0.2,0
	c-0.1,0.1-0.2,0.1-0.3,0.2c-0.1,0.1-0.2,0.1-0.3,0.2l-2,1.4c-1,0.7-1.7,1.3-0.9,2.5c0.7,0.9,1.7,0.5,2.5-0.1l2-1.4
	c0.1-0.1,0.2-0.2,0.3-0.2c0.1-0.1,0.2-0.1,0.3-0.2c0.1,0,0.1-0.1,0-0.2l0-0.4l0.1-0.1L71.5,24.4z M71.5,29.1v4.3
	c-0.2,0.2-0.4,0.5-0.7,0.7c-0.5,0.4-1.1,0.8-1.1,1.2l-0.2,0l-0.1-0.6c-0.2-0.8-0.3-1.1,0.2-1.5c0.5-0.5,1.2-0.8,1.6-1.5
	c0.1-0.1,0.2-0.2,0.2-0.4l-0.1-0.5L69,31.4c-0.1,0-0.1,0.1-0.1,0.2v0.5l-0.2,0.1L68,29.5l0.2,0l0.2,0.3c0.1,0.1,0.1,0.1,0.2,0.1
	c0.1,0,0.2-0.1,0.4-0.1c0.1,0,0.3-0.1,0.5-0.1L71.5,29.1z M71.5,39.6v1.5c-0.6,0-1-0.3-1.3-0.7c-0.3-0.5-0.5-1.2-0.5-2.1
	c0-0.6,0.1-1.1,0.3-1.8h1.2v0.2c-0.6,0.4-0.8,0.9-0.9,1.4c-0.1,0.5,0.1,1.5,0.8,1.6C71.2,39.7,71.4,39.7,71.5,39.6 M71.5,64.3v0.8
	c-1.9,1.5-3.9,2.9-6,4v-0.6C67.6,67.4,69.7,65.9,71.5,64.3 M71.5,69.7v1.6c-2,1.6-4,2.9-6,3.9V74c0.5-0.2,0.9-0.5,1.3-0.8
	C68.6,72,70.1,70.8,71.5,69.7 M65.5,21.8c0,0,0-0.1,0.1-0.1c0.7-1.3,0.7-2.5-0.1-3.4V21.8z M62.9,44.4h2.6v2.1c-0.9,0-1.8,0-2.6,0
	V44.4z M65.5,58.5h-2.6V47.3c0.9,0,1.8,0,2.5,0.1h0.1V58.5z M65.5,4.7v0.9c-0.5-0.1-1-0.2-1.6-0.4c-0.4-0.1-0.7-0.1-1-0.2v-1
	C63.8,4.2,64.7,4.4,65.5,4.7 M65.5,10.3v1.8c-0.8-0.5-1.7-0.9-2.6-1.3V9.1C63.8,9.5,64.6,9.9,65.5,10.3 M65.5,18.3v3.5
	c-0.7,1.1-1.6,1.7-2.6,1.7v-0.9c0.5-0.3,0.9-0.9,1.3-1.5c0.8-1.3,1.1-2.6,0.1-3.2c-0.5-0.3-0.9-0.2-1.3,0.1v-0.9
	c0.6,0,1.1,0.1,1.7,0.5C64.9,17.8,65.2,18,65.5,18.3 M65.5,23.9v2.9c-0.4-0.6-0.7-1.4-0.6-1.9C64.9,24.5,65.2,24.2,65.5,23.9
	 M65.5,68.5v0.6c-0.8,0.4-1.7,0.8-2.6,1.2v-0.6C63.8,69.4,64.6,68.9,65.5,68.5 M65.5,74v1.3c-0.9,0.5-1.8,0.8-2.6,1.2v-1.3
	C63.8,74.8,64.6,74.4,65.5,74 M59.9,44.4h3v2.2c-1.1,0-2.1,0-3,0V44.4z M62.9,58.5h-3V47.3c1.1,0,2,0,3,0V58.5z M62.9,4.1v1
	c-1-0.2-2-0.4-3-0.5v-1C60.9,3.7,61.9,3.8,62.9,4.1 M62.9,9.1v1.7c-0.9-0.4-1.9-0.7-3-1.1V8.1C60.9,8.4,61.9,8.8,62.9,9.1
	 M62.9,17.1v0.9c-0.5,0.3-0.9,0.9-1.2,1.5c-0.7,1.3-1.1,2.7-0.1,3.2c0.5,0.3,0.9,0.2,1.4-0.1v0.9c-0.5,0-1.1-0.1-1.7-0.5
	c-0.6-0.4-1-0.8-1.3-1.3v-2.2c0.1-0.2,0.2-0.5,0.3-0.7C60.9,17.7,61.9,17.1,62.9,17.1 M62.9,69.7v0.6c-0.9,0.4-1.9,0.7-3,1v-0.5
	C60.9,70.5,61.9,70.1,62.9,69.7 M62.9,75.1v1.3c-1,0.4-2,0.8-3,1V76C60.9,75.7,61.9,75.5,62.9,75.1 M59.9,62.9v-0.7l1.3-0.6l0.2,3.3
	l-0.4,0.2l0-3l-0.9,0.4c-0.1,0-0.1,0.1-0.2,0.1C60,62.7,60,62.8,59.9,62.9 M59.9,15.2v-0.2l0.2,0.1l0,0.2
	C60.1,15.2,60,15.2,59.9,15.2 M59.7,44.4h0.2v2.2c-0.1,0-0.1,0-0.2,0V44.4z M59.9,58.5h-0.2V47.3h0.2V58.5z M59.9,3.5v1h-0.2V3.5
	C59.8,3.5,59.9,3.5,59.9,3.5 M59.9,8.1v1.7c-0.1,0-0.1,0-0.2-0.1V8.1C59.8,8.1,59.9,8.1,59.9,8.1 M59.9,14.9v0.2h-0.2v-0.3
	L59.9,14.9z M59.9,19.5v2.2c-0.1-0.2-0.1-0.4-0.2-0.5v-1.1C59.8,19.9,59.9,19.7,59.9,19.5 M59.9,62.2v0.7l-0.1,0l0-0.3v-0.4
	L59.9,62.2z M59.9,70.8v0.5c-0.1,0-0.1,0-0.2,0.1v-0.5C59.8,70.9,59.9,70.8,59.9,70.8 M59.9,76v1.5c-0.1,0-0.1,0-0.2,0.1V76
	C59.8,76,59.9,76,59.9,76 M59.7,64.4v-0.7C59.8,63.9,59.8,64.2,59.7,64.4 M58.7,44.4h1v2.2h-0.3h-0.7V44.4z M59.7,58.5h-1V47.3h1
	V58.5z M59.7,3.5v1.1c-0.3-0.1-0.7-0.1-1-0.2v-1C59.1,3.4,59.4,3.5,59.7,3.5 M59.7,8.1v1.7c-0.3-0.1-0.7-0.2-1-0.3V7.8
	C59.1,7.8,59.4,8,59.7,8.1 M59.7,14.9v0.3c-0.1,0-0.2,0-0.2,0.1c0,0.1-0.1,0.3-0.1,0.4c0,0.1-0.1,0.2-0.1,0.4l-0.6,2.1v-3.6
	L59.7,14.9z M59.7,20.1v1.1C59.7,20.9,59.7,20.5,59.7,20.1 M59.7,62.3v0.4V62.3L59.7,62.3z M59.7,63.7c0-0.1,0-0.1,0-0.2
	c-0.1-0.4-0.3-0.6-0.6-0.7c-0.1-0.1-0.3-0.1-0.4-0.2v0.2c0.1,0,0.1,0.1,0.2,0.1c0.1,0.1,0.2,0.3,0.3,0.6c0,0,0,0.1,0.1,0.2v0.2
	c-0.1,0.1-0.1,0.1-0.2,0.2c-0.1,0-0.1,0.1-0.2,0.1c0,0-0.1,0-0.2,0v0.3c0.1,0,0.1,0,0.2,0c0.1,0,0.1-0.1,0.2-0.1
	c0.1,0,0.1-0.1,0.2-0.2c0,0.3,0,0.6-0.2,0.8c-0.1,0.2-0.2,0.4-0.4,0.6v0.2l0.1,0c0.4-0.3,0.7-0.7,0.8-1.1c0-0.1,0-0.2,0.1-0.3V63.7z
	 M59.7,70.9v0.5c-0.3,0.1-0.7,0.2-1,0.3v-0.5C59.1,71.1,59.4,71,59.7,70.9 M59.7,76v1.5c-0.3,0.1-0.7,0.2-1,0.2v-1.5
	C59.1,76.1,59.4,76.1,59.7,76 M57.8,44.4h0.9v2.2c-0.4,0-0.6,0-0.9,0V44.4z M58.7,58.5h-0.9V47.3h0.9V58.5z M58.7,3.4v1
	c-0.3-0.1-0.6-0.1-0.9-0.1v-1C58.1,3.2,58.4,3.3,58.7,3.4 M58.7,7.8v1.7c-0.3-0.1-0.6-0.2-0.9-0.2V7.5C58.1,7.6,58.4,7.7,58.7,7.8
	 M58.7,14.6v3.6l-0.4,1.8c-0.1,0.5-0.2,0.8-0.5,1.2c0,0,0,0.1-0.1,0.1v-4.5l0.3-1c0-0.1,0.1-0.3,0.1-0.4c0-0.1,0.1-0.4,0.1-0.4
	c0-0.2-0.3-0.3-0.4-0.4l0.1-0.2L58.7,14.6z M58.7,62.6v0.2c-0.1,0-0.2,0-0.3,0c-0.1,0-0.2,0.1-0.2,0.3c-0.1,0.1,0,0.3,0,0.5
	c0.1,0.2,0.1,0.4,0.3,0.5c0.1,0.1,0.1,0.1,0.2,0.1v0.3c-0.2,0-0.4,0-0.5-0.1c-0.2-0.1-0.3-0.3-0.5-0.6c0,0,0-0.1,0-0.1v-0.4
	c0-0.1,0-0.1,0.1-0.2c0.1-0.2,0.3-0.4,0.5-0.5C58.5,62.6,58.6,62.6,58.7,62.6 M58.7,65.6v0.2l-0.2,0C58.6,65.7,58.7,65.6,58.7,65.6
	 M58.7,71.1v0.5c-0.3,0.1-0.6,0.1-0.9,0.2v-0.5C58.1,71.3,58.4,71.2,58.7,71.1 M58.7,76.2v1.5c-0.3,0.1-0.6,0.1-0.9,0.2v-1.6
	C58.1,76.3,58.4,76.2,58.7,76.2 M56.7,44.4h1.1v2.3h-1.1V44.4z M57.8,58.5L57.8,58.5h-1.1V47.3h1.1V58.5z M57.8,3.2v1
	C57.4,4.2,57,4.1,56.7,4V3.1C57,3.1,57.4,3.2,57.8,3.2 M57.8,7.5v1.7C57.4,9.1,57,9,56.7,8.9V7.3C57,7.4,57.4,7.5,57.8,7.5
	 M57.8,16.7v4.5c-0.2,0.4-0.7,0.6-1.1,0.8v-1.1c0.1-0.4,0.2-0.8,0.3-1.1L57.8,16.7z M57.8,63.3v0.4V63.3z M57.8,71.4v0.5
	c-0.4,0.1-0.7,0.1-1.1,0.2v-0.5C57,71.6,57.4,71.5,57.8,71.4 M57.8,76.3V78c-0.4,0.1-0.8,0.1-1.1,0.2v-1.7
	C57,76.4,57.4,76.4,57.8,76.3 M56.7,66.3V66c0.1-0.1,0.2-0.2,0.3-0.4c0.1-0.2,0.2-0.5,0.2-0.8C57.1,64.9,57,65,56.9,65
	c-0.1,0-0.1,0.1-0.2,0.1h-0.1v-0.3h0.1c0.1,0,0.1,0,0.2-0.1c0.1,0,0.1-0.1,0.2-0.1c0-0.1,0-0.1,0-0.2c0,0,0-0.1,0-0.2
	c0-0.2-0.1-0.5-0.3-0.6c0-0.1-0.1-0.1-0.2-0.1v-0.2c0.2,0,0.3,0.1,0.5,0.2c0.2,0.2,0.4,0.5,0.5,0.8c0.1,0.4,0,0.8-0.1,1.2
	C57.3,65.7,57,66.1,56.7,66.3 M54.5,44.4h2.1v2.3c-0.8,0-1.5,0.1-2.1,0.1V44.4z M56.7,58.5h-2.1V47.3h2.1V58.5z M56.7,3.1V4
	c-0.7-0.1-1.4-0.2-2.1-0.3V2.9h0.1C55.1,2.9,55.8,3,56.7,3.1 M56.7,7.3v1.7c-0.7-0.1-1.4-0.2-2.1-0.3V7C55.3,7.1,56,7.2,56.7,7.3
	 M56.7,20.8V22c-0.4,0.1-0.9,0.1-1.3,0.1v-0.2C56.1,21.8,56.4,21.4,56.7,20.8 M56.7,63.2v0.2c-0.1,0-0.1,0-0.2,0
	c-0.1,0-0.2,0.1-0.3,0.2c-0.1,0.1-0.1,0.3,0,0.5c0.1,0.2,0.1,0.4,0.3,0.5c0.1,0.1,0.2,0.1,0.3,0.1v0.3c-0.2,0-0.4,0-0.6-0.1
	c-0.2-0.1-0.3-0.4-0.4-0.6c-0.1-0.2,0-0.5,0.1-0.7c0.1-0.2,0.3-0.4,0.6-0.4C56.5,63.2,56.6,63.2,56.7,63.2 M56.7,66v0.4
	c0,0-0.1,0-0.1,0.1l-0.3-0.1C56.4,66.2,56.6,66.1,56.7,66 M56.7,71.6v0.5c-0.7,0.1-1.4,0.2-2.1,0.3V72C55.3,71.9,56,71.8,56.7,71.6
	 M56.7,76.5v1.7c-0.2,0-0.5,0-0.7,0c-0.4,0-0.9,0-1.4,0.1v-1.6C55.3,76.6,56,76.6,56.7,76.5 M54.5,66.7v-3.1v0l0.3,2.5
	c0,0.1,0.1,0.2,0.1,0.2c0.1,0.1,0.2,0.1,0.3,0.1h0.1l0,0.2L54.5,66.7z M52.4,44.4h2.2v2.4c-0.8,0-1.5,0.1-2.2,0.1V44.4z M54.5,58.5
	h-2.2V47.3h2.2V58.5z M54.5,2.9v0.8c-0.4,0-0.8-0.1-1.2-0.2c-0.3,0-0.6-0.1-1-0.2V2.5C53.2,2.7,53.9,2.8,54.5,2.9 M54.5,7v1.7
	c-0.7-0.1-1.4-0.2-2.2-0.2V6.8C53.1,6.8,53.8,6.9,54.5,7 M54.5,63.6v3.1l-0.4,0l0-0.2h0.1c0.1,0,0.2-0.1,0.3-0.1c0-0.1,0-0.2,0-0.3
	l-0.2-1.8c0-0.1-0.1-0.2-0.1-0.3c0,0-0.2,0-0.3,0v-0.1L54.5,63.6z M54.5,72v0.5c-0.7,0.1-1.4,0.1-2.2,0.2v-0.5
	C53.1,72.1,53.8,72.1,54.5,72 M54.5,76.6v1.6c-0.7,0-1.4,0-2.2-0.1v-1.6C53.1,76.6,53.8,76.6,54.5,76.6 M52.4,21v-0.4
	c0.2,0,0.4-0.1,0.6-0.2c0.7-0.4,0.5-0.9,0-0.8h-0.7v-0.6c0.2,0,0.4,0,0.6,0.1c0.7,0,1.2,0.5,0.7,1.3C53.4,20.6,52.9,20.9,52.4,21
	 M52.4,17.3v-0.5c0.7-0.4,1.4-0.4,1.5,0.1c0.1,0.6-0.2,1-0.3,1.1c-0.2,0.2-0.4,0.1-0.2-0.1c0.2-0.3,0.2-0.8-0.1-0.8
	C53,17.1,52.7,17.2,52.4,17.3 M50.7,44.4h1.7v2.5c-0.6,0-1.2,0-1.7,0.1V44.4z M52.4,58.5h-1.7V47.3c0.5,0,1.1,0,1.7,0V58.5z
	 M52.4,2.5v0.9c-0.5-0.1-1.1-0.2-1.7-0.4V2.1C51.3,2.3,51.8,2.4,52.4,2.5 M52.4,6.8v1.6c-0.5,0-1.1,0-1.7,0V6.8
	C51.3,6.8,51.8,6.8,52.4,6.8 M52.4,16.8v0.5c-0.2,0.1-0.5,0.3-0.6,0.7c-0.2,0.5,0.1,0.7,0.6,0.8v0.6c-0.3,0-0.7-0.1-1-0.3
	c-0.5-0.2-0.7-0.9,0.1-1.7C51.7,17.2,52.1,16.9,52.4,16.8 M52.4,20.5V21c-0.3,0.1-0.7,0.1-0.9,0c-0.5-0.1-0.8-0.4-0.6-0.8
	c0.1-0.4,0.3,0,0.6,0.2C51.6,20.6,51.9,20.6,52.4,20.5 M52.4,72.2v0.5c-0.5,0-1.1,0-1.7,0v-0.5C51.3,72.2,51.8,72.2,52.4,72.2
	 M52.4,76.6v1.6c-0.5,0-1.1-0.1-1.7-0.1v-1.5C51.3,76.6,51.8,76.6,52.4,76.6 M50.7,66.9v-0.2c0.1,0,0.2,0.1,0.4,0.1
	c0.2,0,0.4-0.1,0.6-0.1c0.1-0.1,0.3-0.3,0.4-0.5l0.2,0.1L52,66.9L50.7,66.9z M50.7,65.3v-0.2h0.2c0.3,0,0.5,0,0.6-0.1
	c0.1-0.1,0.1-0.2,0.1-0.3h0.2v1h-0.2c0-0.1,0-0.2-0.1-0.3c-0.1-0.1-0.2-0.1-0.5-0.1H50.7z M50.7,63.9v-0.2l1.4,0v0.7h-0.2
	c0-0.2-0.1-0.3-0.2-0.4c-0.1-0.1-0.3-0.1-0.7-0.1L50.7,63.9z M49,44.4h1.8v2.5c-0.7,0-1.3,0-1.8,0V44.4z M50.7,58.5H49V47.3h1.8
	V58.5z M50.7,2.1V3c-0.6-0.1-1.2-0.2-1.8-0.4V1.7C49.6,1.8,50.2,2,50.7,2.1 M50.7,6.8v1.6c-0.6,0-1.2,0-1.8,0V6.8
	C49.5,6.8,50.1,6.8,50.7,6.8 M50.7,63.7v0.2c-0.1,0-0.1,0-0.1,0c0,0,0,0.1,0,0.1l0,1h0.2v0.2h-0.2v0.9c0,0.1,0,0.3,0.1,0.4
	c0,0,0,0,0.1,0v0.2l-1.1,0v-0.2c0.2,0,0.3-0.1,0.4-0.1c0.1-0.1,0.1-0.2,0.1-0.4l0-1.8c0-0.2,0-0.3-0.1-0.4c0-0.1-0.1-0.1-0.3-0.1
	v-0.1H50.7z M50.7,72.2v0.5c-0.6,0-1.2,0-1.8-0.1v-0.5C49.5,72.2,50.1,72.2,50.7,72.2 M50.7,76.5v1.5c-0.6,0-1.2-0.1-1.8-0.2v-1.5
	C49.5,76.4,50.1,76.5,50.7,76.5 M49,66.6v-0.6c0,0,0-0.1,0.1-0.1h0.2l-0.2,0.7C49,66.6,49,66.6,49,66.6 M49,64v-0.4
	c0.1,0,0.2,0.1,0.4,0.2v0.6h-0.2C49.1,64.4,49.1,64.2,49,64 M49,21.1v-0.6c0.1,0,0.2,0.1,0.4,0.1c0.5,0,0.8-0.1,1-0.3
	c0.2-0.2,0.3,0.1,0,0.3C50.2,20.7,49.7,21,49,21.1 M49,19.2v-0.4c0.3-0.2,0.6-0.5,0.7-0.7c0.2-0.5,0.1-1-0.3-0.8
	c-0.1,0.1-0.2,0.2-0.4,0.3v-0.7c0.5-0.4,1-0.5,1.3-0.3c0.6,0.5-0.1,1.6-0.9,2.2C49.2,19,49.1,19.1,49,19.2 M47.7,44.4H49v2.6h-1.3
	V44.4z M49,58.5h-1.3V47.3H49V58.5z M49,1.7v0.9c-0.4-0.1-0.8-0.2-1.3-0.3V1.4C48.1,1.5,48.5,1.6,49,1.7 M49,6.8v1.6
	c-0.4,0-0.8,0.1-1.3,0.1V6.9C48.1,6.9,48.5,6.8,49,6.8 M49,16.9v0.7c-0.2,0.2-0.4,0.5-0.6,0.9c-0.2,0.6-0.2,1-0.2,1s0.4-0.3,0.8-0.6
	v0.4c-0.3,0.2-0.5,0.4-0.7,0.6c0.1,0.3,0.4,0.6,0.7,0.7v0.6c-0.2,0-0.3,0-0.5,0c-0.3,0-0.6-0.2-0.7-0.5v-2l0,0
	C47.9,17.9,48.5,17.2,49,16.9 M49,63.7V64c0,0,0,0-0.1-0.1c-0.1-0.1-0.3-0.2-0.6-0.2c-0.2,0-0.5,0-0.6,0.1v-0.2c0,0,0,0,0,0
	c0.2-0.1,0.5-0.1,0.7-0.1c0.1,0,0.3,0.1,0.4,0.1C48.9,63.7,48.9,63.7,49,63.7 M49,66.1v0.6c-0.2,0-0.3,0.1-0.5,0.1H48
	c-0.1,0-0.2,0-0.3-0.1v-0.2c0.1,0.1,0.2,0.1,0.4,0.1c0.2,0,0.4,0,0.6-0.1C48.8,66.4,48.9,66.2,49,66.1 M49,72.2v0.5
	c-0.4,0-0.8,0-1.3-0.1v-0.5C48.1,72.1,48.5,72.1,49,72.2 M49,76.3v1.5c-0.4,0-0.8-0.1-1.3-0.2v-1.5C48.1,76.2,48.5,76.3,49,76.3
	 M46.7,44.4h1v2.6c-0.3,0-0.7,0-1,0V44.4z M47.7,58.5h-1V47.3c0.4,0,0.7,0,1,0V58.5z M47.7,1.4v0.9c-0.3-0.1-0.7-0.1-1-0.2V1.2
	C47,1.2,47.4,1.3,47.7,1.4 M47.7,6.9v1.6c-0.3,0-0.7,0.1-1,0.1V7C47,7,47.4,6.9,47.7,6.9 M47.7,18.6v2c-0.1-0.1-0.1-0.3-0.2-0.5
	c-0.2,0.2-0.6,0.6-0.7,0.7c0,0-0.1,0-0.1,0v-0.5c0.4-0.1,0.7-0.4,0.8-0.4C47.5,19.6,47.5,19.1,47.7,18.6 M47.7,63.6v0.2
	c0,0-0.1,0.1-0.1,0.1c-0.2,0.2-0.3,0.5-0.3,0.9c-0.1,0.5,0,0.8,0.1,1.1c0.1,0.2,0.2,0.3,0.3,0.4v0.2c-0.1,0-0.2-0.1-0.3-0.1
	c-0.1-0.1-0.3-0.2-0.4-0.4c-0.1-0.2-0.2-0.4-0.2-0.5l0,0v-0.7c0-0.2,0.1-0.3,0.1-0.5c0.1-0.2,0.2-0.3,0.4-0.5
	C47.3,63.8,47.5,63.7,47.7,63.6 M47.7,72.1v0.5c-0.3,0-0.7-0.1-1-0.1V72C47,72,47.4,72,47.7,72.1 M47.7,76.2v1.5
	c-0.3,0-0.7-0.1-1-0.1V76C47,76.1,47.4,76.1,47.7,76.2 M46.7,63.6v-0.1h0.1L46.7,63.6z M46.7,15.4v-1.8c0.2-0.3,0.4-0.4,0.5-0.4
	c0.3,0,0.4,0.5,0.2,0.8C47.3,14.3,47,14.8,46.7,15.4 M44.8,44.4h1.9V47c-0.6,0-1.3,0-1.9,0V44.4z M46.7,58.5h-1.9V47.3h1.9V58.5z
	 M46.7,1.2v0.9c-0.7-0.2-1.3-0.3-1.9-0.5V0.8C45.5,0.9,46.1,1,46.7,1.2 M46.7,7v1.6c-0.6,0.1-1.3,0.2-1.9,0.3V7.3
	C45.4,7.2,46,7.1,46.7,7 M46.7,13.6v1.8c-0.3,0.6-0.6,1.3-0.8,2c-0.4,1.3-0.5,3,0.2,3.1c0.2,0,0.4,0,0.6-0.1v0.5
	c-0.3,0.2-1.4,0.6-1.7-0.2c-0.3-0.8,0-2.1,0.6-4.4C46,14.8,46.4,14,46.7,13.6 M46.7,63.4v0.1v0c-0.2,0-0.3,0-0.4,0.1
	c-0.1,0-0.1,0.1-0.2,0.4l-0.5,1.8c0,0.1,0,0.2-0.1,0.3c0,0.1,0,0.2,0,0.2l-0.2,0c0-0.1-0.1-0.2-0.1-0.3c0-0.1-0.1-0.2-0.2-0.5
	l-0.2-0.4v-1.2l0.7,1.6l0.4-1.6c0.1-0.2,0.1-0.3,0-0.4c0-0.1-0.1-0.1-0.3-0.2l0.1-0.2L46.7,63.4z M46.7,64.9V65c0,0.2,0,0.4,0,0.6
	V64.9z M46.7,72v0.5c-0.6-0.1-1.3-0.2-1.9-0.3v-0.5C45.4,71.8,46,71.9,46.7,72 M46.7,76v1.5c-0.6-0.1-1.2-0.2-1.9-0.4v-1.5
	C45.4,75.8,46,75.9,46.7,76 M43.2,44.4h1.6V47c-0.3,0-0.6,0-0.8,0c-0.4,0-0.6,0.1-0.8,0.1V44.4z M44.8,58.5h-1.6V47.3h0.3h1.3V58.5z
	 M44.8,0.8v0.8c-0.6-0.1-1.2-0.2-1.5-0.3h-0.1V0.5C43.7,0.6,44.3,0.7,44.8,0.8 M44.8,7.3v1.7c-0.5,0.1-1.1,0.2-1.6,0.4V7.6
	C43.7,7.5,44.3,7.4,44.8,7.3 M44.8,63.9v1.2l-0.7-1.6L43.7,65c-0.1,0.2-0.1,0.4,0,0.5c0,0.1,0.1,0.2,0.2,0.2h0h0l-0.1,0.2l-0.8-0.2
	v-0.2c0,0,0.1,0,0.1-0.1c0.1-0.1,0.1-0.2,0.2-0.4l0.5-1.8c0-0.1-0.1-0.2-0.2-0.3c-0.1-0.1-0.1-0.1-0.2-0.2l0-0.2l0.7,0.2L44.8,63.9z
	 M44.8,71.6v0.5c-0.5-0.1-1.1-0.2-1.6-0.3v-0.5C43.7,71.4,44.3,71.5,44.8,71.6 M44.8,75.7v1.5c-0.5-0.1-1.1-0.2-1.6-0.4v-1.5
	C43.7,75.5,44.2,75.6,44.8,75.7 M43.2,62.6c0.1,0,0.1,0,0.2,0l0.1-0.2l-0.3-0.1V62.6z M42.3,44.4h0.9v2.7c-0.6,0.1-0.5,0.2,0,0.2
	v11.1h-0.9V44.4z M43.2,0.5v0.8c-0.2-0.1-0.6-0.1-0.9-0.1V0.4C42.6,0.5,42.9,0.5,43.2,0.5 M43.2,7.6v1.7c-0.3,0.1-0.6,0.1-0.9,0.2
	V7.9C42.6,7.8,42.9,7.7,43.2,7.6 M43.2,62.3v0.3c-0.1,0-0.1,0-0.1,0c-0.1,0-0.1,0.1-0.2,0.3l-0.5,1.4V63l0.1-0.2
	c0.1-0.2,0.1-0.3,0-0.4c0-0.1,0-0.1-0.1-0.1V62L43.2,62.3z M43.2,65.5v0.2l-0.3-0.1l0.1-0.2h0C43,65.5,43.1,65.5,43.2,65.5
	 M43.2,71.3v0.5c-0.3-0.1-0.6-0.2-0.9-0.2V71C42.6,71.1,42.9,71.2,43.2,71.3 M43.2,75.4v1.5c-0.3-0.1-0.6-0.1-0.9-0.2v-1.5
	C42.6,75.2,42.9,75.3,43.2,75.4 M42.3,65.3v-0.2c0,0,0.1,0,0.1,0.1L42.3,65.3L42.3,65.3z M42.3,21.7v-1.8v0.1c0.3,0.5,0.3,1.1,0,1.7
	C42.3,21.6,42.3,21.6,42.3,21.7 M41.4,44.4h0.9h0v14.1h0h-0.9V47.6h0c0.1,0,0.3-0.1,0.3-0.3c0-0.1-0.1-0.2-0.3-0.2h0V44.4z
	 M42.3,0.4v0.8c-0.3,0-0.6,0-0.9,0V0.4c0.1,0,0.2,0,0.4,0C41.9,0.4,42.1,0.4,42.3,0.4 M42.3,7.9v1.7c-0.3,0.1-0.6,0.2-0.9,0.2V8.1
	C41.7,8,42,8,42.3,7.9 M42.3,19.8v1.8c-0.2,0.4-0.5,0.7-0.9,1v-3.5C41.8,19.3,42,19.5,42.3,19.8 M42.3,62v0.2c0,0-0.1-0.1-0.2-0.1
	l0.1-0.2L42.3,62z M42.3,63v1.4l-0.1,0.2c-0.1,0.2-0.1,0.3,0,0.4c0,0,0.1,0.1,0.1,0.1v0.2L41.4,65v-0.3h0.1c0.1,0,0.1-0.1,0.2-0.3
	L42.3,63z M42.3,71v0.5c-0.3-0.1-0.6-0.2-0.9-0.2v-0.5C41.7,70.9,42,71,42.3,71 M42.3,75.1v1.5c-0.3-0.1-0.6-0.1-0.9-0.2v-1.5
	C41.7,75,42,75,42.3,75.1 M41.4,62.6v-0.9c0.1,0.1,0.2,0.2,0.3,0.4L41.4,62.6L41.4,62.6z M39.8,44.4h1.5v2.7c-0.1,0-0.2,0.1-0.2,0.2
	c0,0.1,0.1,0.2,0.2,0.3v10.9h-1.5V47.5c0.3,0,0.5-0.1,0.5-0.2c0-0.1-0.2-0.2-0.5-0.2V44.4z M41.4,0.4v0.8c-0.5,0-1,0-1.5,0.1V0.4
	C40.3,0.4,40.9,0.4,41.4,0.4 M41.4,8.1v1.7c-0.5,0.2-1.1,0.4-1.5,0.5V8.6C40.3,8.4,40.9,8.3,41.4,8.1 M41.4,19.1v3.5
	c-0.2,0.1-0.5,0.3-0.7,0.5c-0.2,0.2-0.5,0.3-0.8,0.4v-0.7c0.1,0,0.2-0.1,0.3-0.1c0.5-0.2,1.3-0.9,1.1-1.6c-0.2-0.6-0.7-0.7-1.3-0.7
	V19C40.4,18.9,40.9,19,41.4,19.1 M41.4,61.7v0.9l-0.1-0.1c0.1-0.2,0.1-0.4,0-0.6c0-0.1-0.1-0.3-0.3-0.4c-0.1-0.1-0.2-0.1-0.4-0.1
	c-0.1,0-0.2,0.1-0.3,0.2c0,0.1,0,0.1,0,0.2c0,0.1,0,0.1,0,0.2c0,0.1,0.1,0.3,0.3,0.6c0.1,0.1,0.1,0.2,0.2,0.3
	c0.1,0.2,0.2,0.4,0.2,0.5c0,0.2,0,0.3-0.1,0.4c-0.1,0.2-0.3,0.4-0.5,0.5c-0.2,0-0.3,0-0.5,0v-0.2c0.1,0,0.2,0,0.2,0
	c0.1,0,0.2-0.1,0.3-0.2c0-0.1,0.1-0.2,0-0.4c0-0.1-0.1-0.4-0.2-0.6c-0.2-0.4-0.3-0.6-0.3-0.7c0-0.1,0-0.3,0.1-0.5
	c0.1-0.2,0.2-0.4,0.5-0.4c0.2,0,0.4,0,0.7,0.1C41.2,61.4,41.3,61.6,41.4,61.7 M41.4,64.7V65l-0.3-0.1l0.1-0.2
	C41.2,64.7,41.3,64.7,41.4,64.7 M41.4,70.8v0.5c-0.5-0.2-1.1-0.4-1.5-0.5v-0.5C40.3,70.4,40.9,70.6,41.4,70.8 M41.4,74.9v1.5
	c-0.5-0.1-1.1-0.3-1.5-0.5v-1.5C40.3,74.6,40.8,74.8,41.4,74.9 M39.8,17v-0.5l0.2,0.5l-0.1,0C39.9,17.1,39.9,17,39.8,17 M39.3,44.4
	h0.5v2.8c-0.3,0-0.5,0.1-0.5,0.2c0,0.1,0.2,0.2,0.5,0.2v10.9h-0.5V44.4z M39.8,0.4v0.8c-0.2,0-0.4,0-0.5,0.1V0.5
	C39.5,0.5,39.7,0.4,39.8,0.4 M39.8,8.6v1.7c-0.2,0.1-0.4,0.1-0.5,0.2V8.8C39.5,8.8,39.7,8.7,39.8,8.6 M39.8,16.6V17
	c-0.2-0.1-0.4-0.1-0.5-0.2V16c0.1,0,0.1,0,0.2,0L39.8,16.6z M39.8,19v1.3c-0.2,0-0.4,0-0.5,0V19c0.1,0,0.2,0,0.2,0H39.8z M39.8,22.7
	v0.7c-0.2,0.1-0.4,0.1-0.5,0.2v-0.8C39.5,22.8,39.7,22.8,39.8,22.7 M39.8,64.2v0.2c-0.1,0-0.2,0-0.2-0.1c-0.1-0.1-0.2-0.1-0.3-0.2
	V63l0.1,0c0,0.3-0.1,0.5,0,0.7c0.1,0.2,0.2,0.3,0.3,0.4C39.8,64.1,39.8,64.2,39.8,64.2 M39.8,70.3v0.5c-0.2,0-0.4-0.1-0.5-0.2v-0.6
	C39.5,70.1,39.7,70.2,39.8,70.3 M39.8,74.4V76c-0.2-0.1-0.4-0.1-0.5-0.2v-1.5C39.5,74.3,39.7,74.4,39.8,74.4 M36.9,44.4h2.4v14.1
	h-2.4V47.3c2.1-0.1,1.1-0.5,0-0.5V44.4z M39.3,0.5v0.8c-0.8,0.1-1.6,0.4-2.4,0.7V1.2C37.7,0.9,38.5,0.6,39.3,0.5 M39.3,8.8v1.7
	c-0.8,0.3-1.6,0.7-2.4,1.1V9.8C37.7,9.5,38.5,9.1,39.3,8.8 M39.3,16v0.8c-0.8-0.1-1.8,0.4-1.9,1.1c-0.2,1.1,1,1.1,1.9,1.1v1.3
	c-0.3,0-0.6,0.1-1,0.1c-0.5,0.1-1,0-1.4-0.2v-2.9c0.3-0.2,0.6-0.5,0.9-0.7C38.1,16.5,38.9,16.2,39.3,16 M39.3,22.8v0.8
	c-0.1,0-0.3,0.1-0.5,0.1l-0.7-1.1l0.2-0.1C38.7,22.8,39,22.8,39.3,22.8 M39.3,63v1.1c0,0-0.1-0.1-0.1-0.1c-0.1-0.1-0.2-0.2-0.3-0.4
	L39.3,63L39.3,63z M39.3,70.1v0.6c-0.8-0.3-1.6-0.6-2.4-1V69C37.7,69.4,38.5,69.7,39.3,70.1 M39.3,74.3v1.5
	c-0.8-0.2-1.6-0.5-2.4-0.8v-1.5c0.1,0,0.1,0,0.2,0.1C37.6,73.7,38.3,74,39.3,74.3 M36.9,26.6v-1.1c0.1-0.3,0.1-0.6,0-0.8V23
	c0.5,0.5,0.7,0.9,0.8,1.5c0.1,0.7-0.1,1.3-0.7,2C37,26.5,37,26.5,36.9,26.6 M33.7,44.4h3.3v2.4c-0.1,0-0.2,0-0.3,0l-2.9,0V44.4z
	 M36.9,58.5h-3.3v-11h0.1c1.2,0,2.1-0.1,2.3-0.2h0.1c0.3,0,0.5,0,0.7,0V58.5z M36.9,1.2V2c-0.5,0.2-0.9,0.5-1.3,0.8
	c-0.5,0.4-1.2,1-1.9,1.8V3.2C34.7,2.3,35.8,1.7,36.9,1.2 M36.9,9.8v1.8c-1.1,0.6-2.2,1.2-3.3,1.8v-1.8C34.7,10.9,35.8,10.4,36.9,9.8
	 M36.9,17.4v2.9c-0.2-0.1-0.5-0.3-0.6-0.6c-0.3-0.5-0.3-1,0-1.5C36.5,17.9,36.7,17.6,36.9,17.4 M36.9,23c-0.1-0.1-0.3-0.3-0.5-0.4
	l-2-1.7c-0.1-0.1-0.2-0.2-0.3-0.3c-0.1-0.1-0.2-0.1-0.2-0.2c-0.1-0.1-0.1-0.1-0.1-0.2v-0.3l-0.1-0.1l0,0v1.7c0.1,0,0.1,0.1,0.2,0.1
	l2.1,1.7c0.5,0.4,0.9,0.8,1,1.3V23z M36.9,25.5v1.1c-0.6,0.7-1.3,1.2-1.9,1.3c-0.4,0-0.9-0.1-1.3-0.4v-1.9l0.2,0.1
	c1,0.8,1.9,1.4,2.8,0.2C36.8,25.8,36.9,25.6,36.9,25.5 M36.9,69v0.6c-1.1-0.5-2.2-1.1-3.3-1.8v-0.7C34.7,67.8,35.8,68.5,36.9,69
	 M36.9,73.5V75c-1.2-0.5-2.2-1-3.3-1.5v-1.8C35,72.5,36.1,73.1,36.9,73.5 M30,44.4h3.7v2.5l-3.7,0V44.4z M33.7,58.5H30V47.6
	c1.3,0,2.7,0,3.7-0.1V58.5z M33.7,3.2v1.3c-1.1,1.2-2.4,2.6-3.7,4V6.7C31.3,5.3,32.5,4.1,33.7,3.2 M33.7,11.6v1.8
	c-1.3,0.8-2.5,1.8-3.7,2.8v-2C31.2,13.3,32.4,12.4,33.7,11.6 M33.7,19.8v1.7c0-0.1-0.1-0.1-0.1-0.1c-0.1-0.1-0.2-0.2-0.3-0.2
	c0,0-0.1,0-0.2,0l-0.4,0.2l-0.2-0.1L33.7,19.8z M33.7,25.6v1.9c-0.2-0.1-0.5-0.3-0.7-0.5l-2.1-1.8c-0.1-0.1-0.2-0.2-0.4-0.3
	c-0.1-0.1-0.2-0.1-0.2-0.2c-0.1-0.1-0.1,0-0.2,0h0v-0.6l1.1-1.3l0.1,0.1l-0.1,0.4c0,0.1,0,0.1,0,0.2c0.1,0.1,0.2,0.2,0.3,0.2
	c0.1,0.1,0.2,0.2,0.3,0.3L33.7,25.6z M33.7,67.2v0.7c-1.3-0.8-2.5-1.7-3.7-2.6v-0.8C31.2,65.4,32.4,66.3,33.7,67.2 M33.7,71.6v1.8
	c-0.4-0.2-0.7-0.4-1.1-0.6c-0.8-0.6-1.7-1.2-2.6-2v-1.9C31.3,69.9,32.5,70.9,33.7,71.6 M30,47.3L30,47.3c0.3,0,0.6,0,0.9,0H30z
	 M30,38.7v-1.6h1.9c0.1,0,0.1-0.1,0.1-0.1l0.2-0.4h0.2v2.6h-0.2L32,38.9c0-0.1-0.1-0.1-0.1-0.1H30z M30,34.2
	c1.5,0.2,2.7-0.5,3.3-2.1c0.7-2-0.2-3.7-2.3-4.4c-0.3-0.1-0.7-0.2-1-0.2v1.7c0.2,0.1,0.4,0.1,0.6,0.2c1.5,0.6,2.7,1.3,2.3,2.5
	c-0.4,1-1.6,1.1-2.9,0.7V34.2z M14.7,44.4H30v2.5l-5.1,0.1c-1.6,0-2.9,0-0.3,0.2c0.4,0,1.2,0,1.8,0c1,0,2.2,0,3.5,0.1v0
	c-1.5,0-3.1,0.1-2.1,0.2c0.5,0,1.3,0.1,2.1,0.1v10.9H14.7c-0.7,0-1.2-0.6-1.2-1.3v-0.5H13c-0.1,0-0.2-0.1-0.2-0.3v-9.9
	c0-0.1,0.1-0.3,0.2-0.3h0.6v-0.5C13.5,44.9,14,44.4,14.7,44.4 M30,6.7v1.9c-1.8,2-3.5,3.9-4.9,5c-3,2.4-7.2,8-8.3,10.2
	c-1,2.3-0.6,3.1-0.6,4.9c0,1.8,0.2,8.7-0.2,10.6c-0.4,1.9-1.2,4.4-1.2,4.4l-0.6-0.1c0,0,1.4-3.3,1.4-5.4c0-2.1,0-11.6,0.1-13
	c0.1-1.4,1-2.8,2.6-5.3c1.6-2.6,6.1-7.1,10.5-12.2C29.3,7.4,29.7,7,30,6.7 M30,14.2c-7.3,6.1-12,15.2-12,25.5c0,1.3,0.1,2.6,0.2,3.9
	h1c-0.1-1.1-0.2-2.2-0.2-3.3c0-9.6,4.3-18.3,11-24.1V14.2z M30,24.1l-0.5,0.5l0.1,0.1l0.3-0.1V24.1z M30,27.4
	c-1.5-0.2-2.7,0.5-3.3,2.1c-0.7,2,0.1,3.7,2.2,4.4c0.4,0.1,0.7,0.2,1.1,0.2v-1.7c-0.2-0.1-0.4-0.1-0.6-0.2c-1.5-0.6-2.6-1.3-2.2-2.5
	c0.4-1.1,1.5-1.1,2.8-0.7V27.4z M30,37.1h-3.7v-1.6l1.1-0.6l0-0.2h-1.6l0,0v6.3l0,0l1.7,0l0-0.2l-1.1-0.6v-1.6H30V37.1z M30,64.4
	v0.8c-2-1.7-3.9-3.6-5.4-5.7h0.9C26.8,61.3,28.3,63,30,64.4 M30,68.9c-2.7-2.2-5.6-5.1-7.5-7.9c-0.3-0.6-0.7-1.1-1-1.5H20
	c0.9,1.3,5.4,7.3,10,11.3V68.9z M11.7,47.6c-0.8,0-1.2,0.4-1.6,1.5c-0.2,0.7-0.6,0.9-1.5,1c-0.5,0-1.1,0.1-1.4-0.1
	c-0.8-0.4-1.1-1.3-2.4-1.7C3.3,47.9,0,48.5,0,51.2c0,2.8,3.3,3.3,4.8,2.9c1.3-0.4,1.6-1.3,2.4-1.7c0.3-0.1,0.9-0.1,1.4-0.1
	c0.9,0,1.2,0.2,1.5,1c0.4,1.1,0.8,1.5,1.6,1.5V47.6z"/>
</svg>
