<?xml version="1.0" encoding="utf-8"?>
<!-- Generator: Adobe Illustrator 22.0.1, SVG Export Plug-In . SVG Version: 6.00 Build 0)  -->
<svg version="1.1" id="Layer_1" xmlns="http://www.w3.org/2000/svg" xmlns:xlink="http://www.w3.org/1999/xlink" x="0px" y="0px"
	 viewBox="0 0 700 700" style="enable-background:new 0 0 700 700;" xml:space="preserve">
<style type="text/css">
	.st0{fill:#555555;}
</style>
<g>
	<path class="st0" d="M520.7,497.4c7.4-0.1,22.2-10.3,28.1-14.7c50.4-37.5,57.8-100,35.8-144.9c-12.4-25.2-34.1-45.5-62.3-52.4
		c-26-6.4-56.7-1.1-88.5,19.6c-22.4-28-48.2-42.7-73.9-45.9c-3.6-0.5-7.3-0.7-10.8-0.7l0,0c-30.3,0-58.1,16-76.7,41.1
		c-10.7-9.2-22.5-15.3-34.9-18.4c-31.6-7.8-64.9,3.3-90.2,24.2c-25.3,20.9-43.4,52.2-43.4,87.1c0,29.4,15.2,58.7,44.2,87.8
		c15.3,15.3,33.6,17.4,56.7,17.4L520.7,497.4z M511.9,483.3 M195.9,473.7c-1.5,0.2-9.1,0-13.2-0.4c-1.4-0.1-2.9-0.5-4.2-1.2
		c-26.9-13.6-50.4-50.8-52.4-79.8c-1.9-26.9,14.4-52.6,35.2-69.8c20.8-17.2,47.5-25.4,70.6-19.7c23.2,5.7,44.9,24.7,57.1,68.5v0
		c0.8,2.9,2.6,5.4,5.3,6.9c2.6,1.5,5.7,1.9,8.6,1.1c2.9-0.8,5.3-2.7,6.8-5.4s1.8-5.7,0.9-8.6c-5.5-19.9-13.4-36.2-22.9-49
		c14.8-22.2,37.2-35.5,61.2-35.6l0,0c2.7,0,5.4,0.2,8.1,0.5c29,3.6,62,27.2,87.4,85.9c1.2,2.8,3.4,4.9,6.1,6.1
		c2.8,1.1,5.9,1.1,8.6-0.1c2.7-1.2,4.9-3.4,6-6.2c1.1-2.8,1-5.9-0.2-8.6c-5.7-13.1-11.8-24.8-18.4-35.1c27.4-17.7,51-20.8,70.2-16.1
		c21,5.2,37.7,20.4,47.6,40.6c18.6,37.8,13.1,91-35.9,121.7c-5.5,3.4-11.8,5.2-18.3,5.1L195.9,473.7z M218.2,326.4
		c-9.5,0-18.9,3.9-27.6,9.5c-11.6,7.5-22.3,18.8-28.7,33.1c-6.4,14.3-8.5,32-1.7,49.7c4.8,12.5,14.1,20.1,26.1,30.9h0
		c2.5,1.7,5.6,2.2,8.5,1.6c2.9-0.6,5.5-2.4,7.1-4.9c1.6-2.5,2.2-5.6,1.5-8.5s-2.5-5.5-5-7c-10.4-8.6-14.7-14.2-17.2-19.9
		c-4.5-12.1-3.3-22.9,1.1-32.7c4.4-9.8,12.3-18.3,20.4-23.5c8.1-5.2,16-6.2,18.5-5.5l0,0c2.9,0.9,6,0.6,8.6-0.8
		c2.7-1.4,4.6-3.8,5.5-6.7c0.9-2.9,0.5-6-0.9-8.6c-1.4-2.6-3.9-4.6-6.8-5.4C224.5,326.8,221.4,326.4,218.2,326.4L218.2,326.4z"/>
</g>
</svg>
